<svg y="0px" x="0px" viewBox="7.75 3.5 88.75 94.75" xmlns="http://www.w3.org/2000/svg" style="max-height: 500px" width="88.75" height="94.75"><path d="M56.91,94c-.14,0-.29-.02-.43-.07-.74-.24-1.15-1.03-.91-1.77,1.7-5.32,7.34-13.09,10.61-16.66,2.94-3.21,5.26-9.78,5.38-10.12l3.23-10.1c.3-.94,.22-1.94-.23-2.81-.45-.88-1.22-1.52-2.16-1.82-1.94-.62-4.02,.45-4.64,2.39l-1.16,3.62c-.03,.09-.06,.17-.11,.25h0c-.32,.58-1.01,.87-1.66,.66-.74-.24-1.15-1.03-.91-1.77l2.1-6.57c.3-.94,.22-1.94-.23-2.81-.45-.88-1.22-1.52-2.16-1.82-1.92-.61-3.99,.44-4.62,2.34l-.7,2.2v.04l-.71,2.19c-.24,.74-1.03,1.15-1.77,.91-.74-.24-1.15-1.03-.91-1.77l1.4-4.38,.02-.06,1.21-3.78c.3-.94,.22-1.94-.23-2.81-.45-.88-1.22-1.52-2.16-1.82-.94-.3-1.94-.22-2.81,.23-.87,.45-1.52,1.21-1.82,2.15l-2.1,6.56c-.24,.74-1.03,1.15-1.77,.91-.74-.24-1.15-1.03-.91-1.77l.17-.55h0l1.92-6.01h0l5.95-18.62c.3-.94,.22-1.94-.23-2.81-.45-.88-1.22-1.52-2.16-1.82-.94-.3-1.94-.22-2.81,.23-.88,.45-1.52,1.22-1.82,2.16l-11.33,35.44c-.19,.6-.76,1-1.38,.98-.63-.02-1.17-.45-1.32-1.06l-2.76-10.77c-.25-.97-.91-1.76-1.83-2.17-.91-.41-1.95-.38-2.84,.07-1.29,.66-1.98,2.08-1.72,3.52,.81,4.44,1.15,11.92,.81,14.26-.37,2.54,.44,7.73,.79,9.58l2.22,8.58c1.1,4.23,1.09,8.71-.02,12.94l-.86,3.27c-.2,.75-.97,1.2-1.72,1.01-.75-.2-1.2-.97-1.01-1.72l.86-3.27c.99-3.76,1-7.74,.02-11.51l-2.23-8.63s-.01-.06-.02-.09c-.05-.28-1.34-7.01-.82-10.56,.27-1.89,.02-8.91-.8-13.34-.49-2.67,.8-5.3,3.21-6.54,1.66-.85,3.58-.9,5.28-.14s2.94,2.24,3.4,4.04l1.55,6.02,9.84-30.78c.53-1.66,1.67-3.01,3.22-3.8,1.55-.8,3.31-.94,4.97-.41,1.66,.53,3.01,1.67,3.8,3.22,.8,1.55,.94,3.31,.41,4.97l-4.32,13.51c1.25-.38,2.59-.37,3.86,.03,1.66,.53,3.01,1.67,3.8,3.22,.6,1.17,.83,2.46,.68,3.74,1.26-.41,2.65-.45,4-.01,1.66,.53,3.01,1.67,3.8,3.22,.48,.92,.72,1.93,.73,2.94,1.32-.49,2.8-.56,4.24-.1,1.66,.53,3.01,1.67,3.8,3.22,.8,1.55,.94,3.31,.41,4.97l-3.23,10.11v.03c-.11,.3-2.59,7.41-5.98,11.12-3.23,3.52-8.5,10.91-10.01,15.61-.19,.6-.75,.98-1.34,.98Zm3.15-66.37c-.27,0-.55-.08-.79-.24-.65-.44-.82-1.31-.38-1.96,1.19-1.76,1.82-3.82,1.82-5.96,0-5.87-4.78-10.65-10.65-10.65s-10.65,4.78-10.65,10.65c0,.8,.09,1.59,.26,2.36,.17,.76-.3,1.51-1.06,1.69-.76,.17-1.51-.3-1.69-1.06-.22-.97-.33-1.98-.33-2.99,0-7.43,6.04-13.47,13.47-13.47s13.47,6.04,13.47,13.47c0,2.7-.8,5.31-2.3,7.53-.27,.4-.72,.62-1.17,.62Zm-40.45-2.9c-.37,0-.73-.14-1-.41l-7.78-7.78c-.28-.28-.41-.64-.41-1s.14-.72,.41-1l7.78-7.78c.4-.4,1.01-.52,1.54-.31,.53,.22,.87,.73,.87,1.3v6.12h11.3c.78,0,1.41,.63,1.41,1.41s-.63,1.41-1.41,1.41h-11.3v6.62c0,.57-.34,1.08-.87,1.3-.17,.07-.36,.11-.54,.11Zm-5.78-9.19l4.37,4.37v-4.12c0-.09,0-.17,.02-.25-.01-.08-.02-.17-.02-.25v-4.12l-4.37,4.37Zm66.57,9.19c-.18,0-.36-.04-.54-.11-.53-.22-.87-.73-.87-1.3v-6.62h-11.3c-.78,0-1.41-.63-1.41-1.41s.63-1.41,1.41-1.41h11.3V7.77c0-.57,.34-1.08,.87-1.3,.53-.22,1.13-.1,1.54,.31l7.78,7.78h.01v.02h0c.26,.27,.39,.61,.39,.96h0v.02h0v.02h0v.02h0c0,.35-.14,.69-.39,.96h-.01v.02h0l-7.78,7.78c-.27,.27-.63,.41-1,.41Zm1.39-9.19c.01,.08,.02,.17,.02,.25v4.12l4.37-4.37-4.37-4.37v4.12c0,.09,0,.17-.02,.25Z"/><text font-family="'Helvetica Neue', Helvetica, Arial-Unicode, Arial, Sans-serif" font-weight="bold" font-size="5px" fill="#000000" y="115" x="0">Created by Suncheli Project</text><text font-family="'Helvetica Neue', Helvetica, Arial-Unicode, Arial, Sans-serif" font-weight="bold" font-size="5px" fill="#000000" y="120" x="0">from the Noun Project</text></svg>